M48
; DRILL file {KiCad (6.0.0)} date Fri Jan 28 15:40:50 2022
; FORMAT={-:-/ absolute / metric / decimal}
; #@! TF.CreationDate,2022-01-28T15:40:50+10:00
; #@! TF.GenerationSoftware,Kicad,Pcbnew,(6.0.0)
; #@! TF.FileFunction,NonPlated,1,2,NPTH
FMAT,2
METRIC
; #@! TA.AperFunction,NonPlated,NPTH,ComponentDrill
T1C0.500
; #@! TA.AperFunction,NonPlated,NPTH,ComponentDrill
T2C3.200
; #@! TA.AperFunction,NonPlated,NPTH,ComponentDrill
T3C5.000
%
G90
G05
T1
X135.0Y-66.25
X135.0Y-67.0
X135.0Y-67.75
X135.0Y-68.5
X135.0Y-69.25
X135.0Y-70.0
X135.0Y-70.75
X135.0Y-71.5
X135.0Y-72.25
X135.0Y-73.0
X135.0Y-73.0
X135.0Y-73.75
X135.0Y-111.25
X135.0Y-112.0
X135.0Y-112.75
X135.0Y-113.5
X135.0Y-114.25
X135.0Y-115.0
X135.0Y-115.75
X135.0Y-116.5
X135.0Y-117.25
X135.0Y-118.0
X135.0Y-118.0
X135.0Y-118.75
X135.0Y-161.25
X135.0Y-162.0
X135.0Y-162.75
X135.0Y-163.5
X135.0Y-164.25
X135.0Y-165.0
X135.0Y-165.75
X135.0Y-166.5
X135.0Y-167.25
X135.0Y-168.0
X135.0Y-168.0
X135.0Y-168.75
X135.0Y-206.25
X135.0Y-207.0
X135.0Y-207.75
X135.0Y-208.5
X135.0Y-209.25
X135.0Y-210.0
X135.0Y-210.75
X135.0Y-211.5
X135.0Y-212.25
X135.0Y-213.0
X135.0Y-213.0
X135.0Y-213.75
X140.0Y-66.25
X140.0Y-67.0
X140.0Y-67.75
X140.0Y-68.5
X140.0Y-69.25
X140.0Y-70.0
X140.0Y-70.75
X140.0Y-71.5
X140.0Y-72.25
X140.0Y-73.0
X140.0Y-73.0
X140.0Y-73.75
X140.0Y-111.25
X140.0Y-112.0
X140.0Y-112.75
X140.0Y-113.5
X140.0Y-114.25
X140.0Y-115.0
X140.0Y-115.75
X140.0Y-116.5
X140.0Y-117.25
X140.0Y-118.0
X140.0Y-118.0
X140.0Y-118.75
X140.0Y-161.25
X140.0Y-162.0
X140.0Y-162.75
X140.0Y-163.5
X140.0Y-164.25
X140.0Y-165.0
X140.0Y-165.75
X140.0Y-166.5
X140.0Y-167.25
X140.0Y-168.0
X140.0Y-168.0
X140.0Y-168.75
X140.0Y-206.25
X140.0Y-207.0
X140.0Y-207.75
X140.0Y-208.5
X140.0Y-209.25
X140.0Y-210.0
X140.0Y-210.75
X140.0Y-211.5
X140.0Y-212.25
X140.0Y-213.0
X140.0Y-213.0
X140.0Y-213.75
T2
X110.0Y-70.0
X110.0Y-210.0
X148.3Y-211.99
X153.7Y-211.99
X165.0Y-70.0
X165.0Y-210.0
T3
X110.0Y-119.0
X110.0Y-134.0
X110.0Y-149.0
T0
M30
