G04 #@! TF.GenerationSoftware,KiCad,Pcbnew,(6.0.0)*
G04 #@! TF.CreationDate,2022-01-28T15:40:09+10:00*
G04 #@! TF.ProjectId,PowerSupply,506f7765-7253-4757-9070-6c792e6b6963,rev?*
G04 #@! TF.SameCoordinates,Original*
G04 #@! TF.FileFunction,Soldermask,Bot*
G04 #@! TF.FilePolarity,Negative*
%FSLAX46Y46*%
G04 Gerber Fmt 4.6, Leading zero omitted, Abs format (unit mm)*
G04 Created by KiCad (PCBNEW (6.0.0)) date 2022-01-28 15:40:09*
%MOMM*%
%LPD*%
G01*
G04 APERTURE LIST*
G04 Aperture macros list*
%AMRoundRect*
0 Rectangle with rounded corners*
0 $1 Rounding radius*
0 $2 $3 $4 $5 $6 $7 $8 $9 X,Y pos of 4 corners*
0 Add a 4 corners polygon primitive as box body*
4,1,4,$2,$3,$4,$5,$6,$7,$8,$9,$2,$3,0*
0 Add four circle primitives for the rounded corners*
1,1,$1+$1,$2,$3*
1,1,$1+$1,$4,$5*
1,1,$1+$1,$6,$7*
1,1,$1+$1,$8,$9*
0 Add four rect primitives between the rounded corners*
20,1,$1+$1,$2,$3,$4,$5,0*
20,1,$1+$1,$4,$5,$6,$7,0*
20,1,$1+$1,$6,$7,$8,$9,0*
20,1,$1+$1,$8,$9,$2,$3,0*%
G04 Aperture macros list end*
%ADD10R,1.800000X1.800000*%
%ADD11C,1.800000*%
%ADD12C,3.200000*%
%ADD13R,2.000000X1.905000*%
%ADD14O,2.000000X1.905000*%
%ADD15C,0.500000*%
%ADD16R,2.400000X2.400000*%
%ADD17O,2.400000X2.400000*%
%ADD18C,5.000000*%
%ADD19R,2.000000X2.000000*%
%ADD20C,2.000000*%
%ADD21RoundRect,0.250000X-1.125000X-1.125000X1.125000X-1.125000X1.125000X1.125000X-1.125000X1.125000X0*%
%ADD22C,2.750000*%
%ADD23C,1.700000*%
%ADD24RoundRect,0.250000X0.600000X0.600000X-0.600000X0.600000X-0.600000X-0.600000X0.600000X-0.600000X0*%
%ADD25R,4.000000X4.000000*%
%ADD26C,4.000000*%
%ADD27O,2.000000X2.600000*%
%ADD28O,2.600000X2.000000*%
G04 APERTURE END LIST*
D10*
X165000000Y-135000000D03*
D11*
X165000000Y-132460000D03*
D12*
X165000000Y-70000000D03*
D13*
X177945000Y-117460000D03*
D14*
X177945000Y-120000000D03*
X177945000Y-122540000D03*
D15*
X140000000Y-72250000D03*
X135000000Y-66250000D03*
X140000000Y-70750000D03*
X135000000Y-68500000D03*
X140000000Y-69250000D03*
X140000000Y-73750000D03*
X140000000Y-71500000D03*
X135000000Y-70750000D03*
X140000000Y-67000000D03*
X135000000Y-72250000D03*
X135000000Y-73000000D03*
X135000000Y-70000000D03*
X135000000Y-73000000D03*
X140000000Y-73000000D03*
X135000000Y-67750000D03*
X140000000Y-67750000D03*
X135000000Y-69250000D03*
X140000000Y-66250000D03*
X140000000Y-73000000D03*
X135000000Y-71500000D03*
X135000000Y-73750000D03*
X140000000Y-70000000D03*
X135000000Y-67000000D03*
X140000000Y-68500000D03*
D12*
X165000000Y-210000000D03*
D16*
X148650000Y-185000000D03*
D17*
X161350000Y-185000000D03*
D18*
X110000000Y-134000000D03*
D19*
X183367677Y-104000000D03*
D20*
X178367677Y-104000000D03*
D16*
X170000000Y-185000000D03*
D17*
X182700000Y-185000000D03*
D15*
X140000000Y-165750000D03*
X135000000Y-168750000D03*
X140000000Y-165000000D03*
X140000000Y-161250000D03*
X140000000Y-168750000D03*
X140000000Y-168000000D03*
X140000000Y-167250000D03*
X135000000Y-163500000D03*
X135000000Y-161250000D03*
X135000000Y-165000000D03*
X135000000Y-168000000D03*
X135000000Y-166500000D03*
X135000000Y-168000000D03*
X135000000Y-167250000D03*
X140000000Y-164250000D03*
X140000000Y-163500000D03*
X135000000Y-164250000D03*
X135000000Y-162000000D03*
X135000000Y-162750000D03*
X140000000Y-162000000D03*
X140000000Y-168000000D03*
X135000000Y-165750000D03*
X140000000Y-166500000D03*
X140000000Y-162750000D03*
X140000000Y-208500000D03*
X135000000Y-213000000D03*
X140000000Y-210000000D03*
X140000000Y-213000000D03*
X140000000Y-213000000D03*
X135000000Y-206250000D03*
X140000000Y-206250000D03*
X140000000Y-207000000D03*
X140000000Y-211500000D03*
X135000000Y-209250000D03*
X135000000Y-213000000D03*
X140000000Y-207750000D03*
X140000000Y-212250000D03*
X140000000Y-213750000D03*
X135000000Y-213750000D03*
X135000000Y-212250000D03*
X140000000Y-209250000D03*
X135000000Y-208500000D03*
X135000000Y-210750000D03*
X135000000Y-210000000D03*
X140000000Y-210750000D03*
X135000000Y-211500000D03*
X135000000Y-207750000D03*
X135000000Y-207000000D03*
D17*
X185000000Y-126350000D03*
D16*
X185000000Y-113650000D03*
D10*
X165000000Y-120000000D03*
D11*
X165000000Y-117460000D03*
D20*
X146367677Y-104000000D03*
D19*
X151367677Y-104000000D03*
D18*
X110000000Y-149000000D03*
D12*
X110000000Y-70000000D03*
D18*
X110000000Y-119000000D03*
D10*
X165000000Y-150000000D03*
D11*
X165000000Y-147460000D03*
D15*
X135000000Y-117250000D03*
X135000000Y-118750000D03*
X135000000Y-113500000D03*
X140000000Y-115000000D03*
X140000000Y-113500000D03*
X135000000Y-115000000D03*
X135000000Y-118000000D03*
X135000000Y-111250000D03*
X135000000Y-118000000D03*
X135000000Y-116500000D03*
X135000000Y-112750000D03*
X140000000Y-117250000D03*
X135000000Y-112000000D03*
X140000000Y-118000000D03*
X140000000Y-112750000D03*
X140000000Y-112000000D03*
X140000000Y-114250000D03*
X140000000Y-116500000D03*
X140000000Y-111250000D03*
X140000000Y-115750000D03*
X135000000Y-115750000D03*
X140000000Y-118750000D03*
X140000000Y-118000000D03*
X135000000Y-114250000D03*
D19*
X151367677Y-68000000D03*
D20*
X146367677Y-68000000D03*
D12*
X110000000Y-210000000D03*
X153700000Y-211990000D03*
X148300000Y-211990000D03*
D21*
X148300000Y-195790000D03*
D22*
X153700000Y-195790000D03*
D16*
X145000000Y-92350000D03*
D17*
X145000000Y-79650000D03*
D23*
X177860000Y-83850000D03*
X180400000Y-83850000D03*
X177860000Y-81310000D03*
X180400000Y-81310000D03*
X177860000Y-78770000D03*
X180400000Y-78770000D03*
X177860000Y-76230000D03*
X180400000Y-76230000D03*
X177860000Y-73690000D03*
X180400000Y-73690000D03*
X177860000Y-71150000D03*
D24*
X180400000Y-71150000D03*
D25*
X172842168Y-167500000D03*
D26*
X182842168Y-167500000D03*
D16*
X145000000Y-126350000D03*
D17*
X145000000Y-113650000D03*
D25*
X147842169Y-167500000D03*
D26*
X157842169Y-167500000D03*
D25*
X147842168Y-142500000D03*
D26*
X157842168Y-142500000D03*
D27*
X162100000Y-197500000D03*
D28*
X165000000Y-202300000D03*
D27*
X167900000Y-197500000D03*
D13*
X152055000Y-122540000D03*
D14*
X152055000Y-120000000D03*
X152055000Y-117460000D03*
D25*
X172842168Y-142500000D03*
D26*
X182842168Y-142500000D03*
D13*
X152055000Y-88540000D03*
D14*
X152055000Y-86000000D03*
X152055000Y-83460000D03*
M02*
