M48
; DRILL file {KiCad (6.0.0)} date Fri Jan 28 15:40:50 2022
; FORMAT={-:-/ absolute / metric / decimal}
; #@! TF.CreationDate,2022-01-28T15:40:50+10:00
; #@! TF.GenerationSoftware,Kicad,Pcbnew,(6.0.0)
; #@! TF.FileFunction,Plated,1,2,PTH
FMAT,2
METRIC
; #@! TA.AperFunction,Plated,PTH,ViaDrill
T1C0.400
; #@! TA.AperFunction,Plated,PTH,ComponentDrill
T2C0.900
; #@! TA.AperFunction,Plated,PTH,ComponentDrill
T3C1.000
; #@! TA.AperFunction,Plated,PTH,ComponentDrill
T4C1.100
; #@! TA.AperFunction,Plated,PTH,ComponentDrill
T5C1.200
; #@! TA.AperFunction,Plated,PTH,ComponentDrill
T6C1.750
; #@! TA.AperFunction,Plated,PTH,ComponentDrill
T7C2.000
%
G90
G05
T1
X156.0Y-89.0
X156.0Y-109.0
X162.56Y-125.73
T2
X165.0Y-117.46
X165.0Y-120.0
X165.0Y-132.46
X165.0Y-135.0
X165.0Y-147.46
X165.0Y-150.0
T3
X146.368Y-68.0
X146.368Y-104.0
X151.368Y-68.0
X151.368Y-104.0
X177.86Y-71.15
X177.86Y-73.69
X177.86Y-76.23
X177.86Y-78.77
X177.86Y-81.31
X177.86Y-83.85
X178.368Y-104.0
X180.4Y-71.15
X180.4Y-73.69
X180.4Y-76.23
X180.4Y-78.77
X180.4Y-81.31
X180.4Y-83.85
X183.368Y-104.0
T4
X152.055Y-83.46
X152.055Y-86.0
X152.055Y-88.54
X152.055Y-117.46
X152.055Y-120.0
X152.055Y-122.54
X177.945Y-117.46
X177.945Y-120.0
X177.945Y-122.54
T5
X145.0Y-79.65
X145.0Y-92.35
X145.0Y-113.65
X145.0Y-126.35
X148.65Y-185.0
X161.35Y-185.0
X170.0Y-185.0
X182.7Y-185.0
X185.0Y-113.65
X185.0Y-126.35
T6
X148.3Y-195.79
X153.7Y-195.79
T7
X147.842Y-142.5
X147.842Y-167.5
X157.842Y-142.5
X157.842Y-167.5
X172.842Y-142.5
X172.842Y-167.5
X182.842Y-142.5
X182.842Y-167.5
T3
X162.1Y-197.2G85X162.1Y-197.8
G05
X164.7Y-202.3G85X165.3Y-202.3
G05
X167.9Y-197.8G85X167.9Y-197.2
G05
T0
M30
