G04 #@! TF.GenerationSoftware,KiCad,Pcbnew,(6.0.0)*
G04 #@! TF.CreationDate,2022-01-28T15:40:09+10:00*
G04 #@! TF.ProjectId,PowerSupply,506f7765-7253-4757-9070-6c792e6b6963,rev?*
G04 #@! TF.SameCoordinates,Original*
G04 #@! TF.FileFunction,Profile,NP*
%FSLAX46Y46*%
G04 Gerber Fmt 4.6, Leading zero omitted, Abs format (unit mm)*
G04 Created by KiCad (PCBNEW (6.0.0)) date 2022-01-28 15:40:09*
%MOMM*%
%LPD*%
G01*
G04 APERTURE LIST*
G04 #@! TA.AperFunction,Profile*
%ADD10C,0.050000*%
G04 #@! TD*
G04 #@! TA.AperFunction,Profile*
%ADD11C,0.120000*%
G04 #@! TD*
G04 APERTURE END LIST*
D10*
X140000000Y-219000000D02*
G75*
G03*
X141000000Y-220000000I999999J-1D01*
G01*
X190000000Y-61000000D02*
G75*
G03*
X189000000Y-60000000I-999999J1D01*
G01*
X135000000Y-205000000D02*
G75*
G03*
X140000000Y-205000000I2500000J0D01*
G01*
X190000000Y-219000000D02*
X190000000Y-61000000D01*
X135000000Y-41000000D02*
G75*
G03*
X134000000Y-40000000I-999999J1D01*
G01*
X189000000Y-220000000D02*
G75*
G03*
X190000000Y-219000000I1J999999D01*
G01*
X140000000Y-215000000D02*
G75*
G03*
X135000000Y-215000000I-2500000J0D01*
G01*
X86000000Y-40000000D02*
X134000000Y-40000000D01*
X140000000Y-120000000D02*
X140000000Y-160000000D01*
X135000000Y-110000000D02*
G75*
G03*
X140000000Y-110000000I2500000J0D01*
G01*
X85000000Y-239000000D02*
X85000000Y-41000000D01*
X141000000Y-60000000D02*
G75*
G03*
X140000000Y-61000000I-1J-999999D01*
G01*
X135000000Y-215000000D02*
X135000000Y-239000000D01*
X140000000Y-75000000D02*
G75*
G03*
X135000000Y-75000000I-2500000J0D01*
G01*
X134000000Y-240000000D02*
X86000000Y-240000000D01*
X141000000Y-220000000D02*
X189000000Y-220000000D01*
X140000000Y-170000000D02*
G75*
G03*
X135000000Y-170000000I-2500000J0D01*
G01*
X85000000Y-239000000D02*
G75*
G03*
X86000000Y-240000000I999999J-1D01*
G01*
X134000000Y-240000000D02*
G75*
G03*
X135000000Y-239000000I1J999999D01*
G01*
X140000000Y-75000000D02*
X140000000Y-110000000D01*
X135000000Y-120000000D02*
X135000000Y-160000000D01*
X135000000Y-160000000D02*
G75*
G03*
X140000000Y-160000000I2500000J0D01*
G01*
X140000000Y-120000000D02*
G75*
G03*
X135000000Y-120000000I-2500000J0D01*
G01*
X140000000Y-219000000D02*
X140000000Y-215000000D01*
X140000000Y-170000000D02*
X140000000Y-205000000D01*
X86000000Y-40000000D02*
G75*
G03*
X85000000Y-41000000I-1J-999999D01*
G01*
X189000000Y-60000000D02*
X141000000Y-60000000D01*
X140000000Y-61000000D02*
X140000000Y-65000000D01*
X135000000Y-170000000D02*
X135000000Y-205000000D01*
X135000000Y-41000000D02*
X135000000Y-65000000D01*
X135000000Y-65000000D02*
G75*
G03*
X140000000Y-65000000I2500000J0D01*
G01*
X135000000Y-75000000D02*
X135000000Y-110000000D01*
D11*
X119600000Y-165900000D02*
X100400000Y-165900000D01*
X99000000Y-167300000D02*
X99000000Y-192700000D01*
X100400000Y-194100000D02*
X119600000Y-194100000D01*
X121000000Y-192700000D02*
X121000000Y-167300000D01*
X100400000Y-165900000D02*
G75*
G03*
X99000000Y-167300000I-700000J-700000D01*
G01*
X119600000Y-194100000D02*
G75*
G03*
X121000000Y-192700000I700000J700000D01*
G01*
X121000000Y-167300000D02*
G75*
G03*
X119600000Y-165900000I-700000J700000D01*
G01*
X99000000Y-192700000D02*
G75*
G03*
X100400000Y-194100000I700000J-700000D01*
G01*
M02*
